<mxfile host="app.diagrams.net" agent="Mozilla/5.0 (Windows NT 10.0; Win64; x64) AppleWebKit/537.36 (KHTML, like Gecko) Chrome/139.0.0.0 Safari/537.36" version="28.1.1">
  <diagram name="Page-1" id="LyInvM_Bfp1gMlTYXvOc">
    <mxGraphModel dx="1426" dy="743" grid="1" gridSize="10" guides="1" tooltips="1" connect="1" arrows="1" fold="1" page="1" pageScale="1" pageWidth="827" pageHeight="1169" math="0" shadow="0">
      <root>
        <mxCell id="0" />
        <mxCell id="1" parent="0" />
        <mxCell id="3iaPUuZhpaFYiC75Wb92-1" value="&lt;blockquote style=&quot;margin: 0 0 0 40px; border: none; padding: 0px;&quot;&gt;&lt;div style=&quot;line-height: 180%;&quot;&gt;&lt;font style=&quot;color: light-dark(rgb(0, 0, 0), rgb(0, 102, 204));&quot;&gt;&lt;b&gt;Query name:&lt;/b&gt;&lt;/font&gt;&amp;nbsp;Retrieve all matches of a championship&lt;/div&gt;&lt;div style=&quot;line-height: 180%;&quot;&gt;&lt;br&gt;&lt;/div&gt;&lt;div style=&quot;line-height: 180%;&quot;&gt;&lt;font style=&quot;color: light-dark(rgb(0, 0, 0), rgb(0, 102, 204));&quot;&gt;&lt;b&gt;&lt;font style=&quot;&quot;&gt;Objective:&lt;/font&gt;&lt;/b&gt; &lt;/font&gt;Get a list of all the teams involved in championships&lt;/div&gt;&lt;/blockquote&gt;&lt;div style=&quot;line-height: 180%;&quot;&gt;&lt;br&gt;&lt;/div&gt;&lt;blockquote style=&quot;margin: 0 0 0 40px; border: none; padding: 0px;&quot;&gt;&lt;div style=&quot;line-height: 180%;&quot;&gt;&lt;b&gt;&lt;font style=&quot;color: light-dark(rgb(0, 0, 0), rgb(0, 102, 204));&quot;&gt;Schedule : &lt;/font&gt;&lt;/b&gt;use multiple parameters (upcoming, past, all)&amp;nbsp;to consolidated the entire pool of teams (total for S54 worldwide is 3000 teams, you can retrieve 600 matches per division so 1200 team_id maximum per parameter, shouldnt take more than 3 queries per championship_id to retrieve all teams)&lt;/div&gt;&lt;div style=&quot;line-height: 180%;&quot;&gt;&lt;br&gt;&lt;/div&gt;&lt;div style=&quot;line-height: 180%;&quot;&gt;&lt;b&gt;&lt;font style=&quot;color: light-dark(rgb(0, 0, 0), rgb(0, 102, 204));&quot;&gt;Size :&lt;/font&gt; &lt;/b&gt;6 requests per championship id (up to 6 times 100 offset)&lt;/div&gt;&lt;/blockquote&gt;" style="rounded=1;whiteSpace=wrap;html=1;align=left;" parent="1" vertex="1">
          <mxGeometry x="29" y="70" width="770" height="240" as="geometry" />
        </mxCell>
        <mxCell id="3iaPUuZhpaFYiC75Wb92-2" value="&lt;b&gt;&lt;font style=&quot;font-size: 15px;&quot;&gt;API query schema&lt;/font&gt;&lt;/b&gt;" style="text;html=1;align=center;verticalAlign=middle;whiteSpace=wrap;rounded=0;" parent="1" vertex="1">
          <mxGeometry x="316" y="20" width="196" height="30" as="geometry" />
        </mxCell>
        <mxCell id="3iaPUuZhpaFYiC75Wb92-3" value="For one season" style="text;html=1;align=center;verticalAlign=middle;whiteSpace=wrap;rounded=0;" parent="1" vertex="1">
          <mxGeometry x="20" y="20" width="140" height="30" as="geometry" />
        </mxCell>
        <mxCell id="3iaPUuZhpaFYiC75Wb92-4" value="&lt;blockquote style=&quot;margin: 0 0 0 40px; border: none; padding: 0px;&quot;&gt;&lt;div style=&quot;line-height: 180%;&quot;&gt;&lt;font style=&quot;color: light-dark(rgb(0, 0, 0), rgb(0, 102, 204));&quot;&gt;&lt;b&gt;Query name:&lt;/b&gt;&lt;/font&gt;&amp;nbsp;&lt;span style=&quot;background-color: transparent; color: light-dark(rgb(0, 0, 0), rgb(255, 255, 255));&quot;&gt;Retrieve all matches of a player&lt;/span&gt;&lt;/div&gt;&lt;div style=&quot;line-height: 180%;&quot;&gt;&lt;br&gt;&lt;/div&gt;&lt;div style=&quot;line-height: 180%;&quot;&gt;&lt;font style=&quot;color: light-dark(rgb(0, 0, 0), rgb(0, 102, 204));&quot;&gt;&lt;b&gt;&lt;font style=&quot;&quot;&gt;Objective:&lt;/font&gt;&lt;/b&gt; &lt;/font&gt;Get a list of all the matches where the each team_leader is involved between a set of dates&lt;/div&gt;&lt;/blockquote&gt;&lt;div style=&quot;line-height: 180%;&quot;&gt;&lt;br&gt;&lt;/div&gt;&lt;blockquote style=&quot;margin: 0 0 0 40px; border: none; padding: 0px;&quot;&gt;&lt;div style=&quot;line-height: 180%;&quot;&gt;&lt;font style=&quot;font-weight: bold; color: light-dark(rgb(0, 0, 0), rgb(0, 102, 204));&quot;&gt;Schedule : &lt;/font&gt;&lt;font style=&quot;color: light-dark(rgb(0, 0, 0), rgb(255, 255, 255));&quot;&gt;Once every three days to keep a decent update rate to follow league&#39;s evolution&lt;/font&gt;&lt;/div&gt;&lt;div style=&quot;line-height: 180%;&quot;&gt;&lt;br&gt;&lt;/div&gt;&lt;div style=&quot;line-height: 180%;&quot;&gt;&lt;b&gt;&lt;font style=&quot;color: light-dark(rgb(0, 0, 0), rgb(0, 102, 204));&quot;&gt;Size :&lt;/font&gt; &lt;/b&gt;One request per players to gather all the matches played on the last X days (as an exemple we have around 1200 teams involved in all divisions in Europe)&lt;/div&gt;&lt;/blockquote&gt;" style="rounded=1;whiteSpace=wrap;html=1;align=left;" parent="1" vertex="1">
          <mxGeometry x="29" y="430" width="371" height="240" as="geometry" />
        </mxCell>
        <mxCell id="3iaPUuZhpaFYiC75Wb92-5" value="" style="endArrow=classic;html=1;rounded=0;entryX=0.5;entryY=0;entryDx=0;entryDy=0;exitX=0;exitY=0.5;exitDx=0;exitDy=0;" parent="1" source="3iaPUuZhpaFYiC75Wb92-6" target="3iaPUuZhpaFYiC75Wb92-4" edge="1">
          <mxGeometry width="50" height="50" relative="1" as="geometry">
            <mxPoint x="270" y="400" as="sourcePoint" />
            <mxPoint x="320" y="350" as="targetPoint" />
          </mxGeometry>
        </mxCell>
        <mxCell id="3iaPUuZhpaFYiC75Wb92-6" value="Gather all team_id and all leader_id within a list" style="rounded=1;whiteSpace=wrap;html=1;" parent="1" vertex="1">
          <mxGeometry x="326" y="340" width="176" height="60" as="geometry" />
        </mxCell>
        <mxCell id="3iaPUuZhpaFYiC75Wb92-7" value="" style="endArrow=classic;html=1;rounded=0;entryX=0.5;entryY=0;entryDx=0;entryDy=0;exitX=0.5;exitY=1;exitDx=0;exitDy=0;" parent="1" target="3iaPUuZhpaFYiC75Wb92-8" edge="1">
          <mxGeometry width="50" height="50" relative="1" as="geometry">
            <mxPoint x="208" y="670" as="sourcePoint" />
            <mxPoint x="208" y="790" as="targetPoint" />
          </mxGeometry>
        </mxCell>
        <mxCell id="3iaPUuZhpaFYiC75Wb92-8" value="Filter all these matches to keep only those belonging to championship plays" style="rounded=1;whiteSpace=wrap;html=1;" parent="1" vertex="1">
          <mxGeometry x="326" y="706" width="176" height="60" as="geometry" />
        </mxCell>
        <mxCell id="3iaPUuZhpaFYiC75Wb92-11" value="&lt;blockquote style=&quot;margin: 0 0 0 40px; border: none; padding: 0px;&quot;&gt;&lt;div style=&quot;line-height: 180%;&quot;&gt;&lt;font style=&quot;color: light-dark(rgb(0, 0, 0), rgb(0, 102, 204));&quot;&gt;&lt;b&gt;Query name:&lt;/b&gt;&lt;/font&gt;&amp;nbsp;&lt;span style=&quot;background-color: transparent; color: light-dark(rgb(0, 0, 0), rgb(255, 255, 255));&quot;&gt;Retrieve team details&lt;/span&gt;&lt;/div&gt;&lt;div style=&quot;line-height: 180%;&quot;&gt;&lt;br&gt;&lt;/div&gt;&lt;div style=&quot;line-height: 180%;&quot;&gt;&lt;font style=&quot;color: light-dark(rgb(0, 0, 0), rgb(0, 102, 204));&quot;&gt;&lt;b&gt;&lt;font style=&quot;&quot;&gt;Objective:&lt;/font&gt;&lt;/b&gt; &lt;/font&gt;Enrich team and player list with data like faceit links &amp;amp; avatars&lt;/div&gt;&lt;/blockquote&gt;&lt;div style=&quot;line-height: 180%;&quot;&gt;&lt;br&gt;&lt;/div&gt;&lt;blockquote style=&quot;margin: 0 0 0 40px; border: none; padding: 0px;&quot;&gt;&lt;div style=&quot;line-height: 180%;&quot;&gt;&lt;b&gt;&lt;font style=&quot;color: light-dark(rgb(0, 0, 0), rgb(0, 102, 204));&quot;&gt;Schedule : &lt;/font&gt;&lt;font style=&quot;color: light-dark(rgb(0, 0, 0), rgb(255, 255, 255));&quot;&gt;Once every time team list gets updated&lt;/font&gt;&lt;/b&gt;&lt;/div&gt;&lt;div style=&quot;line-height: 180%;&quot;&gt;&lt;br&gt;&lt;/div&gt;&lt;div style=&quot;line-height: 180%;&quot;&gt;&lt;b&gt;&lt;font style=&quot;color: light-dark(rgb(0, 0, 0), rgb(0, 102, 204));&quot;&gt;Size :&lt;/font&gt; &lt;/b&gt;One request per team&amp;nbsp;&lt;/div&gt;&lt;/blockquote&gt;" style="rounded=1;whiteSpace=wrap;html=1;align=left;" parent="1" vertex="1">
          <mxGeometry x="428" y="430" width="371" height="240" as="geometry" />
        </mxCell>
        <mxCell id="3iaPUuZhpaFYiC75Wb92-12" value="" style="endArrow=classic;html=1;rounded=0;entryX=0.5;entryY=0;entryDx=0;entryDy=0;exitX=1;exitY=0.5;exitDx=0;exitDy=0;" parent="1" source="3iaPUuZhpaFYiC75Wb92-6" target="3iaPUuZhpaFYiC75Wb92-11" edge="1">
          <mxGeometry width="50" height="50" relative="1" as="geometry">
            <mxPoint x="351" y="420" as="sourcePoint" />
            <mxPoint x="240" y="480" as="targetPoint" />
          </mxGeometry>
        </mxCell>
        <mxCell id="3iaPUuZhpaFYiC75Wb92-13" value="" style="endArrow=classic;html=1;rounded=0;entryX=0.5;entryY=0;entryDx=0;entryDy=0;exitX=0.5;exitY=1;exitDx=0;exitDy=0;" parent="1" source="3iaPUuZhpaFYiC75Wb92-1" target="3iaPUuZhpaFYiC75Wb92-6" edge="1">
          <mxGeometry width="50" height="50" relative="1" as="geometry">
            <mxPoint x="431" y="400" as="sourcePoint" />
            <mxPoint x="320" y="460" as="targetPoint" />
          </mxGeometry>
        </mxCell>
        <mxCell id="3iaPUuZhpaFYiC75Wb92-14" value="&lt;blockquote style=&quot;margin: 0 0 0 40px; border: none; padding: 0px;&quot;&gt;&lt;div style=&quot;line-height: 180%;&quot;&gt;&lt;font style=&quot;color: light-dark(rgb(0, 0, 0), rgb(0, 102, 204));&quot;&gt;&lt;b&gt;Query name:&lt;/b&gt;&lt;/font&gt;&amp;nbsp;&lt;span style=&quot;background-color: transparent; color: light-dark(rgb(0, 0, 0), rgb(255, 255, 255));&quot;&gt;Retrieve statistics of a match&lt;/span&gt;&lt;/div&gt;&lt;div style=&quot;line-height: 180%;&quot;&gt;&lt;br&gt;&lt;/div&gt;&lt;div style=&quot;line-height: 180%;&quot;&gt;&lt;font style=&quot;color: light-dark(rgb(0, 0, 0), rgb(0, 102, 204));&quot;&gt;&lt;b&gt;&lt;font style=&quot;&quot;&gt;Objective:&lt;/font&gt;&lt;/b&gt;&amp;nbsp;&lt;/font&gt;&lt;font style=&quot;&quot;&gt;Gather statistics about each matches played to populate team_stats and player_stats tables&lt;br&gt;&lt;br&gt;&lt;/font&gt;&lt;/div&gt;&lt;/blockquote&gt;&lt;blockquote style=&quot;margin: 0 0 0 40px; border: none; padding: 0px;&quot;&gt;&lt;div style=&quot;line-height: 180%;&quot;&gt;&lt;b&gt;&lt;font style=&quot;color: light-dark(rgb(0, 0, 0), rgb(0, 102, 204));&quot;&gt;Schedule : &lt;/font&gt;&lt;font style=&quot;color: light-dark(rgb(0, 0, 0), rgb(255, 255, 255));&quot;&gt;Once every three days to keep a decent update rate to follow league&#39;s evolution&lt;/font&gt;&lt;/b&gt;&lt;/div&gt;&lt;div style=&quot;line-height: 180%;&quot;&gt;&lt;br&gt;&lt;/div&gt;&lt;div style=&quot;line-height: 180%;&quot;&gt;&lt;b&gt;&lt;font style=&quot;color: light-dark(rgb(0, 0, 0), rgb(0, 102, 204));&quot;&gt;Size :&lt;/font&gt; &lt;/b&gt;One request per match_id to gather all the matches &amp;amp; maps statistics (as a match_id can be composed of several rounds if it&#39;s a Best of 3 for example)&lt;/div&gt;&lt;/blockquote&gt;" style="rounded=1;whiteSpace=wrap;html=1;align=left;" parent="1" vertex="1">
          <mxGeometry x="34" y="809" width="760" height="240" as="geometry" />
        </mxCell>
        <mxCell id="3iaPUuZhpaFYiC75Wb92-15" value="" style="endArrow=classic;html=1;rounded=0;entryX=0.5;entryY=0;entryDx=0;entryDy=0;exitX=0.5;exitY=1;exitDx=0;exitDy=0;" parent="1" source="3iaPUuZhpaFYiC75Wb92-8" target="3iaPUuZhpaFYiC75Wb92-14" edge="1">
          <mxGeometry width="50" height="50" relative="1" as="geometry">
            <mxPoint x="410" y="780" as="sourcePoint" />
            <mxPoint x="516" y="800" as="targetPoint" />
          </mxGeometry>
        </mxCell>
        <mxCell id="3iaPUuZhpaFYiC75Wb92-16" value="Build dataviz" style="rounded=1;whiteSpace=wrap;html=1;" parent="1" vertex="1">
          <mxGeometry x="326" y="1093" width="176" height="60" as="geometry" />
        </mxCell>
        <mxCell id="3iaPUuZhpaFYiC75Wb92-17" value="" style="endArrow=classic;html=1;rounded=0;exitX=0.5;exitY=1;exitDx=0;exitDy=0;entryX=0.5;entryY=0;entryDx=0;entryDy=0;" parent="1" source="3iaPUuZhpaFYiC75Wb92-14" target="3iaPUuZhpaFYiC75Wb92-16" edge="1">
          <mxGeometry width="50" height="50" relative="1" as="geometry">
            <mxPoint x="310" y="1120" as="sourcePoint" />
            <mxPoint x="414" y="1160" as="targetPoint" />
          </mxGeometry>
        </mxCell>
        <mxCell id="3iaPUuZhpaFYiC75Wb92-19" value="Must define if leader is absent of a match how does it behave on his histiry" style="text;html=1;align=center;verticalAlign=middle;whiteSpace=wrap;rounded=0;" parent="1" vertex="1">
          <mxGeometry x="533.5" y="721" width="160" height="30" as="geometry" />
        </mxCell>
      </root>
    </mxGraphModel>
  </diagram>
</mxfile>
